<svg width="33" height="32" viewBox="0 0 33 32" fill="none" xmlns="http://www.w3.org/2000/svg">
<g clip-path="url(#clip0_3002_11362)">
<rect x="0.36377" width="31.9969" height="31.9969" rx="6" fill="white"/>
<path d="M8.2559 12.0559H7.09777V18.9934H8.25656C8.93092 18.9572 9.40924 18.4177 9.41668 17.8373V13.2121C9.37046 12.5238 8.89898 12.0651 8.2559 12.0559ZM11.2927 17.8499C11.2927 19.099 10.5217 20.9916 8.08125 20.9876H5V10H8.14633C10.4998 10 11.2913 11.8899 11.292 13.1397L11.2927 17.8499ZM17.9784 11.9623H14.4403V14.5136H16.6032V16.4773H14.4403V19.0279H17.9791V20.9916H13.85C13.1089 21.0108 12.4926 20.4251 12.474 19.684V11.3759C12.4561 10.6355 13.0425 10.0206 13.7829 10.002H17.9791L17.9784 11.9623ZM24.8608 19.6183C23.9842 21.6603 22.4137 21.2539 21.7105 19.6183L19.1518 10.0027H21.3147L23.2876 17.5544L25.2512 10.0027H27.4148L24.8608 19.6183Z" fill="black"/>
</g>
<defs>
<clipPath id="clip0_3002_11362">
<rect x="0.36377" width="31.9969" height="31.9969" rx="6" fill="white"/>
</clipPath>
</defs>
</svg>
