<svg width="70" height="71" viewBox="0 0 70 71" fill="none" xmlns="http://www.w3.org/2000/svg">
<rect x="-0.00488281" y="0.496094" width="70.0023" height="70.0023" rx="14" fill="#EA4C89"/>
<path d="M34.9967 56.056C46.3506 56.056 55.5547 46.8519 55.5547 35.498C55.5547 24.1441 46.3506 14.9399 34.9967 14.9399C23.6428 14.9399 14.4386 24.1441 14.4386 35.498C14.4386 46.8519 23.6428 56.056 34.9967 56.056Z" fill="#EA4C89"/>
<path fill-rule="evenodd" clip-rule="evenodd" d="M34.9964 14.2759C23.281 14.2759 13.7751 23.7817 13.7751 35.4971C13.7751 47.2125 23.281 56.7183 34.9964 56.7183C46.6887 56.7183 56.2176 47.2125 56.2176 35.4971C56.2176 23.7817 46.6887 14.2759 34.9964 14.2759ZM49.0134 24.0579C51.5452 27.1421 53.0644 31.0779 53.1104 35.3359C52.512 35.221 46.5276 34.001 40.4973 34.7606C40.3592 34.4614 40.2441 34.1391 40.106 33.8169C39.7377 32.9423 39.3235 32.0447 38.9092 31.193C45.5839 28.4771 48.6221 24.5643 49.0134 24.0579ZM34.9964 17.4061C39.5996 17.4061 43.8116 19.1324 47.011 21.9634C46.6887 22.4237 43.9497 26.0833 37.5051 28.5001C34.536 23.0452 31.2447 18.58 30.7383 17.8895C32.0962 17.5672 33.5233 17.4061 34.9964 17.4061ZM27.2859 19.1093C27.7692 19.7538 30.9915 24.242 34.0067 29.5818C25.5366 31.8375 18.0562 31.7915 17.2506 31.7915C18.4245 26.1754 22.2222 21.5031 27.2859 19.1093ZM16.8594 35.5202C16.8594 35.3359 16.8594 35.1518 16.8594 34.9678C17.6419 34.9907 26.4342 35.1058 35.4797 32.3899C36.0091 33.4026 36.4925 34.4383 36.9528 35.474C36.7226 35.5431 36.4694 35.6122 36.2393 35.6812C26.8946 38.6963 21.923 46.9363 21.5087 47.6267C18.6316 44.4275 16.8594 40.1695 16.8594 35.5202ZM34.9964 53.6341C30.8073 53.6341 26.9406 52.2071 23.8794 49.8133C24.2016 49.1459 27.8842 42.0568 38.1035 38.4893C38.1496 38.4662 38.1726 38.4662 38.2187 38.4433C40.7734 45.0489 41.8093 50.5959 42.0854 52.184C39.8989 53.1277 37.5051 53.6341 34.9964 53.6341ZM45.1006 50.5269C44.9165 49.4221 43.9497 44.1283 41.579 37.6146C47.2642 36.7169 52.2357 38.1901 52.8572 38.3972C52.0747 43.4378 49.1745 47.7879 45.1006 50.5269Z" fill="white"/>
</svg>
