<svg width="32" height="32" viewBox="0 0 32 32" fill="none" xmlns="http://www.w3.org/2000/svg">
<rect width="31.9985" height="31.9985" rx="6" fill="white"/>
<g clip-path="url(#clip0_3072_9871)">
<path d="M27.2361 10.0178H4.67719C4.14118 10.0178 3.70667 10.444 3.70667 10.9696V27.0322C3.70667 27.5578 4.14118 27.984 4.67719 27.984H27.2361C27.7721 27.984 28.2067 27.5578 28.2067 27.0322V10.9696C28.2067 10.444 27.7721 10.0178 27.2361 10.0178Z" fill="#4989F5"/>
<path d="M26.953 9.88281H4.93323C4.25113 9.88281 3.72034 15.0599 3.72034 15.7289L15.779 27.9839H26.953C27.6372 27.9821 28.1914 27.4386 28.1932 26.7676V11.0989C28.1912 10.428 27.6371 9.88464 26.953 9.88281Z" fill="url(#paint0_linear_3072_9871)"/>
<path d="M9.30078 13.0265H16.3008V4.01636H10.3489L9.30078 13.0265Z" fill="#3C4BA6"/>
<path d="M23.3008 13.0265H16.3008V4.01636H22.2526L23.3008 13.0265ZM28.2066 5.72435L28.2153 5.75506C28.2132 5.74422 28.2089 5.73415 28.2066 5.72435Z" fill="#7BABF7"/>
<path d="M28.2153 5.75481L28.2066 5.7241C27.9847 4.72747 27.0852 4.01676 26.0451 4.01611H22.2527L23.3001 13.0265H30.3001L28.2153 5.75481Z" fill="#3F51B5"/>
<path d="M4.39504 5.72437L4.38635 5.75508C4.38846 5.74424 4.39267 5.73417 4.39504 5.72437Z" fill="#7BABF7"/>
<path d="M4.3861 5.75481L4.39479 5.7241C4.61671 4.72747 5.51618 4.01676 6.55637 4.01611H10.349L9.30005 13.0265H2.30005L4.3861 5.75481Z" fill="#7BABF7"/>
<path fill-rule="evenodd" clip-rule="evenodd" d="M9.3127 13.0242C9.3127 14.9188 7.74657 16.4547 5.81468 16.4547C3.88278 16.4547 2.31665 14.9188 2.31665 13.0242H9.3127Z" fill="#709BE0"/>
<path fill-rule="evenodd" clip-rule="evenodd" d="M16.3087 13.0242C16.3087 14.9188 14.7425 16.4547 12.8106 16.4547C10.8788 16.4547 9.31262 14.9188 9.31262 13.0242H16.3087Z" fill="#3C4BA6"/>
<path fill-rule="evenodd" clip-rule="evenodd" d="M23.3048 13.0242C23.3048 14.9188 21.7386 16.4547 19.8067 16.4547C17.8748 16.4547 16.3087 14.9188 16.3087 13.0242H23.3048Z" fill="#709BE0"/>
<path fill-rule="evenodd" clip-rule="evenodd" d="M30.3 13.0242C30.3 14.9188 28.7339 16.4547 26.802 16.4547C24.8701 16.4547 23.304 14.9188 23.304 13.0242H30.3Z" fill="#3C4BA6"/>
<path d="M26.8021 22.3185C26.7898 22.1552 26.7692 22.006 26.74 21.8155H22.9242C22.9242 22.3389 22.9242 22.9101 22.9221 23.4337H25.1327C25.0857 23.6778 24.99 23.9103 24.8512 24.118C24.7123 24.3256 24.533 24.5044 24.3234 24.6439C24.3234 24.6439 24.3234 24.6348 24.3219 24.6346C24.0513 24.8088 23.7465 24.9255 23.4271 24.9771C23.1069 25.0345 22.7786 25.0331 22.459 24.9729C22.1344 24.907 21.827 24.7764 21.5561 24.5892C21.1561 24.311 20.8476 23.9244 20.6684 23.4768C20.6548 23.442 20.6421 23.4069 20.6292 23.3713V23.3674L20.6327 23.3648C20.4587 22.8642 20.4583 22.3213 20.6313 21.8204C20.7532 21.4691 20.9538 21.149 21.2184 20.8836C21.8392 20.2539 22.7666 20.0171 23.6216 20.2699C23.9495 20.3685 24.249 20.5414 24.4961 20.7747L25.2419 20.0433C25.3734 19.913 25.51 19.7868 25.6366 19.652C25.2584 19.3061 24.8146 19.0365 24.3303 18.8587C23.4489 18.5453 22.4847 18.537 21.5979 18.8352C21.567 18.8455 21.5363 18.8563 21.5058 18.8675C20.5491 19.2202 19.762 19.912 19.3 20.8062C19.1369 21.1227 19.0181 21.4593 18.9469 21.807C18.5244 23.8658 19.8054 25.8923 21.8734 26.437C22.5495 26.6146 23.2682 26.6102 23.9495 26.4584C24.5685 26.3214 25.1409 26.0297 25.6111 25.6117C26.1016 25.1691 26.4532 24.5793 26.6374 23.953C26.7914 23.4222 26.8472 22.8686 26.8021 22.3185Z" fill="white"/>
</g>
<defs>
<linearGradient id="paint0_linear_3072_9871" x1="3.72034" y1="8414.88" x2="26042.6" y2="8414.88" gradientUnits="userSpaceOnUse">
<stop offset="0.03" stop-color="#4079D8"/>
<stop offset="1" stop-color="#4989F5"/>
</linearGradient>
<clipPath id="clip0_3072_9871">
<rect width="28" height="24" fill="white" transform="translate(2.30005 4)"/>
</clipPath>
</defs>
</svg>
