<svg width="33" height="32" viewBox="0 0 33 32" fill="none" xmlns="http://www.w3.org/2000/svg">
<rect x="0.36377" width="31.9969" height="31.9969" rx="6" fill="white"/>
<path d="M25.4112 23.3913L27 24.9252V24.9761H18.9412V24.9252L20.5589 23.3913C20.7315 23.2492 20.8142 23.0238 20.7745 22.8023V12.9963C20.7745 12.5818 20.7745 12.0217 20.8467 11.5427L15.4106 25.1723H15.346L9.717 12.6327L9.47977 12.0874V20.3095C9.41232 20.8595 9.50471 21.4172 9.74588 21.916L12.0106 24.9256V24.9764H6V24.9256L8.26472 21.9088C8.50425 21.4127 8.59284 20.8575 8.5305 20.3095V11.2224C8.56725 10.7749 8.4337 10.3299 8.15644 9.97948L6.55355 7.8785V7.82764H12.3049L17.1218 18.4484L21.3635 7.82764H26.9928V7.8785L25.4112 9.65956C25.2216 9.79967 25.1271 10.0362 25.1668 10.2699V22.8023C25.146 22.9136 25.1581 23.0285 25.2015 23.1331C25.2449 23.2376 25.3178 23.3273 25.4112 23.3913Z" fill="#1C1B1A"/>
</svg>
