<svg width="70" height="71" viewBox="0 0 70 71" fill="none" xmlns="http://www.w3.org/2000/svg">
<rect x="-0.00195312" y="0.496094" width="69.999" height="69.999" rx="14" fill="#FF4500"/>
<path d="M58.3307 35.4955C58.3307 32.671 56.0384 30.3786 53.2138 30.3786C51.822 30.3786 50.594 30.9107 49.6934 31.8113C46.2139 29.3143 41.3836 27.6769 36.062 27.4722L38.3953 16.5425L45.9683 18.139C46.0502 20.0629 47.6467 21.6185 49.6116 21.6185C51.6174 21.6185 53.2548 19.9811 53.2548 17.9753C53.2548 15.9694 51.6174 14.332 49.6116 14.332C48.1788 14.332 46.9508 15.1507 46.3777 16.3788L37.9041 14.5776C37.6585 14.5367 37.4129 14.5776 37.2082 14.7004C37.0035 14.8233 36.8807 15.0279 36.7989 15.2735L34.22 27.4722C28.7756 27.6359 23.9043 29.2324 20.3839 31.8113C19.4833 30.9517 18.2143 30.3786 16.8635 30.3786C14.0389 30.3786 11.7466 32.671 11.7466 35.4955C11.7466 37.5832 12.9746 39.3434 14.7758 40.1621C14.6939 40.6533 14.653 41.1855 14.653 41.7176C14.653 49.5772 23.7815 55.9221 35.0796 55.9221C46.3777 55.9221 55.5062 49.5772 55.5062 41.7176C55.5062 41.1855 55.4653 40.6942 55.3834 40.203C57.0617 39.3843 58.3307 37.5832 58.3307 35.4955ZM23.3312 39.1387C23.3312 37.1329 24.9686 35.4955 26.9744 35.4955C28.9803 35.4955 30.6177 37.1329 30.6177 39.1387C30.6177 41.1445 28.9803 42.7819 26.9744 42.7819C24.9686 42.7819 23.3312 41.1445 23.3312 39.1387ZM43.676 48.7584C41.1789 51.2555 36.4304 51.4192 35.0387 51.4192C33.6469 51.4192 28.8575 51.2146 26.4013 48.7584C26.0329 48.39 26.0329 47.776 26.4013 47.4076C26.7698 47.0392 27.3838 47.0392 27.7522 47.4076C29.3077 48.9631 32.6644 49.5362 35.0796 49.5362C37.4948 49.5362 40.8105 48.9631 42.407 47.4076C42.7754 47.0392 43.3894 47.0392 43.7578 47.4076C44.0444 47.8169 44.0444 48.39 43.676 48.7584ZM43.021 42.7819C41.0152 42.7819 39.3778 41.1445 39.3778 39.1387C39.3778 37.1329 41.0152 35.4955 43.021 35.4955C45.0268 35.4955 46.6642 37.1329 46.6642 39.1387C46.6642 41.1445 45.0268 42.7819 43.021 42.7819Z" fill="white"/>
</svg>
