<svg width="33" height="32" viewBox="0 0 33 32" fill="none" xmlns="http://www.w3.org/2000/svg">
<rect x="0.36377" width="31.9969" height="31.9969" rx="6" fill="#2AB6F6"/>
<g clip-path="url(#clip0_3143_6150)">
<path d="M24.2917 8.50008L21.17 24.4384C21.17 24.4384 21.0359 25.1668 20.1325 25.1668C19.6525 25.1668 19.405 24.9384 19.405 24.9384L12.6434 19.3276L9.33504 17.6601L5.08921 16.5309C5.08921 16.5309 4.33337 16.3126 4.33337 15.6876C4.33337 15.1668 5.11087 14.9184 5.11087 14.9184L22.8742 7.86175C22.8742 7.86175 23.4167 7.66592 23.8125 7.66675C24.0559 7.66675 24.3334 7.77092 24.3334 8.08342C24.3334 8.29175 24.2917 8.50008 24.2917 8.50008Z" fill="white"/>
<path d="M15.1666 21.4207L12.3116 24.2324C12.3116 24.2324 12.1874 24.3282 12.0216 24.3324C11.9641 24.334 11.9024 24.3249 11.8391 24.2965L12.6424 19.3257L15.1666 21.4207Z" fill="#B0BEC5"/>
<path d="M20.9142 11.1632C20.7734 10.9799 20.5134 10.9466 20.33 11.0857L9.33337 17.6666C9.33337 17.6666 11.0884 22.5766 11.3559 23.4266C11.6242 24.2774 11.8392 24.2974 11.8392 24.2974L12.6425 19.3266L20.8359 11.7466C21.0192 11.6074 21.0534 11.3466 20.9142 11.1632Z" fill="#CFD8DC"/>
</g>
<defs>
<clipPath id="clip0_3143_6150">
<rect width="31" height="20.4173" fill="white" transform="translate(1 6.40771)"/>
</clipPath>
</defs>
</svg>
